# Blender 3.5.1
# www.blender.org
mtllib tetrahedre.mtl
o Cube
v 1.604890 -0.002724 1.019902
v -0.042358 -0.000147 -1.486657
v -1.411949 0.001678 1.193214
v 0.006033 7.030451 0.005761
vn 0.8307 0.1101 -0.5458
vn -0.8858 0.1022 -0.4528
vn -0.0015 -1.0000 -0.0001
vn 0.0569 0.1551 0.9863
vt 0.375000 0.000000
vt 0.375000 1.000000
vt 0.125000 0.750000
vt 0.875000 0.500000
vt 0.625000 0.250000
vt 0.625000 0.750000
vt 0.375000 0.500000
s 0
f 4/7/1 1/1/1 2/5/1
f 2/4/2 3/6/2 4/7/2
f 2/5/3 1/2/3 3/6/3
f 1/3/4 4/7/4 3/6/4
